HIERARCHY
ROOT Hips
{
  OFFSET 0.119678 17.0473 -0.101963
  CHANNELS 6 Xposition Yposition Zposition Zrotation Xrotation Yrotation
  JOINT LHipJoint
  {
    OFFSET 0 0 0
    CHANNELS 6 Xposition Yposition Zposition Zrotation Xrotation Yrotation
    JOINT LeftUpLeg
    {
      OFFSET 1.36306 -1.79463 0.83929
      CHANNELS 6 Xposition Yposition Zposition Zrotation Xrotation Yrotation
      JOINT LeftLeg
      {
        OFFSET 2.44811 -6.72613 0
        CHANNELS 6 Xposition Yposition Zposition Zrotation Xrotation Yrotation
        JOINT LeftFoot
        {
          OFFSET 2.5622 -7.03959 0
          CHANNELS 6 Xposition Yposition Zposition Zrotation Xrotation Yrotation
          JOINT LeftToeBase
          {
            OFFSET 0.15764 -0.43311 2.32255
            CHANNELS 6 Xposition Yposition Zposition Zrotation Xrotation Yrotation
            End Site
            {
              OFFSET 0 0 0
            }
          }
        }
      }
    }
  }
  JOINT RHipJoint
  {
    OFFSET 0 0 0
    CHANNELS 6 Xposition Yposition Zposition Zrotation Xrotation Yrotation
    JOINT RightUpLeg
    {
      OFFSET -1.30552 -1.79463 0.83929
      CHANNELS 6 Xposition Yposition Zposition Zrotation Xrotation Yrotation
      JOINT RightLeg
      {
        OFFSET -2.54253 -6.98555 0
        CHANNELS 6 Xposition Yposition Zposition Zrotation Xrotation Yrotation
        JOINT RightFoot
        {
          OFFSET -2.56826 -7.05623 0
          CHANNELS 6 Xposition Yposition Zposition Zrotation Xrotation Yrotation
          JOINT RightToeBase
          {
            OFFSET -0.16473 -0.45259 2.36315
            CHANNELS 6 Xposition Yposition Zposition Zrotation Xrotation Yrotation
            End Site
            {
              OFFSET 0 0 0
            }
          }
        }
      }
    }
  }
  JOINT LowerBack
  {
    OFFSET 0 0 0
    CHANNELS 6 Xposition Yposition Zposition Zrotation Xrotation Yrotation
    JOINT Spine
    {
      OFFSET 0.02827 2.03559 -0.19338
      CHANNELS 6 Xposition Yposition Zposition Zrotation Xrotation Yrotation
      JOINT Spine1
      {
        OFFSET 0.05672 2.04885 -0.04275
        CHANNELS 6 Xposition Yposition Zposition Zrotation Xrotation Yrotation
        JOINT Neck
        {
          OFFSET 0 0 0
          CHANNELS 6 Xposition Yposition Zposition Zrotation Xrotation Yrotation
          JOINT Neck1
          {
            OFFSET -0.05417 1.74624 0.17202
            CHANNELS 6 Xposition Yposition Zposition Zrotation Xrotation Yrotation
            JOINT Head
            {
              OFFSET 0.10407 1.76136 -0.12397
              CHANNELS 6 Xposition Yposition Zposition Zrotation Xrotation Yrotation
              End Site
              {
                OFFSET 0 0 0
              }
            }
          }
        }
        JOINT LeftShoulder
        {
          OFFSET 0 0 0
          CHANNELS 6 Xposition Yposition Zposition Zrotation Xrotation Yrotation
          JOINT LeftArm
          {
            OFFSET 3.36241 1.20089 -0.31121
            CHANNELS 6 Xposition Yposition Zposition Zrotation Xrotation Yrotation
            JOINT LeftForeArm
            {
              OFFSET 4.983 0 0
              CHANNELS 6 Xposition Yposition Zposition Zrotation Xrotation Yrotation
              JOINT LeftHand
              {
                OFFSET 3.48356 0 0
                CHANNELS 6 Xposition Yposition Zposition Zrotation Xrotation Yrotation
                JOINT LeftFingerBase
                {
                  OFFSET 0 0 0
                  CHANNELS 6 Xposition Yposition Zposition Zrotation Xrotation Yrotation
                  JOINT LeftHandIndex1
                  {
                    OFFSET 0.71526 0 0
                    CHANNELS 6 Xposition Yposition Zposition Zrotation Xrotation Yrotation
                    End Site
                    {
                      OFFSET 0 0 0
                    }
                  }
                }
                JOINT LThumb
                {
                  OFFSET 0 0 0
                  CHANNELS 6 Xposition Yposition Zposition Zrotation Xrotation Yrotation
                  End Site
                  {
                    OFFSET 0 0 0
                  }
                }
              }
            }
          }
        }
        JOINT RightShoulder
        {
          OFFSET 0 0 0
          CHANNELS 6 Xposition Yposition Zposition Zrotation Xrotation Yrotation
          JOINT RightArm
          {
            OFFSET -3.1366 1.37405 -0.40465
            CHANNELS 6 Xposition Yposition Zposition Zrotation Xrotation Yrotation
            JOINT RightForeArm
            {
              OFFSET -5.2419 0 0
              CHANNELS 6 Xposition Yposition Zposition Zrotation Xrotation Yrotation
              JOINT RightHand
              {
                OFFSET -3.44417 0 0
                CHANNELS 6 Xposition Yposition Zposition Zrotation Xrotation Yrotation
                JOINT RightFingerBase
                {
                  OFFSET 0 0 0
                  CHANNELS 6 Xposition Yposition Zposition Zrotation Xrotation Yrotation
                  JOINT RightHandIndex1
                  {
                    OFFSET -0.62253 0 0
                    CHANNELS 6 Xposition Yposition Zposition Zrotation Xrotation Yrotation
                    End Site
                    {
                      OFFSET 0 0 0
                    }
                  }
                }
                JOINT RThumb
                {
                  OFFSET 0 0 0
                  CHANNELS 6 Xposition Yposition Zposition Zrotation Xrotation Yrotation
                  End Site
                  {
                    OFFSET 0 0 0
                  }
                }
              }
            }
          }
        }
      }
    }
  }
}
MOTION
Frames:	6
Frame Time:	0.00833333
0.119678 17.0473 -0.101963 -0.0111396 8.63947 -1.34464 0 0 0 -0.299681 5.35791 18.0368 1.36306 -1.79463 0.83929 -19.7739 -3.6004 -3.75342 2.44811 -6.72613 0 2.8963 41.5872 7.47133 2.5622 -7.03959 0 1.97929 14.6383 1.19897 0.15764 -0.43311 2.32255 -6.36111e-015 3.18055e-015 -1.59028e-015 0 0 0 -8.85582 0.425549 -20.6242 -1.30552 -1.79463 0.83929 51.9673 -33.7776 25.327 -2.54253 -6.98555 3.55271e-015 -6.13117 34.4056 -2.39804 -2.56826 -7.05623 0 -1.23391 11.1963 1.29058 -0.16473 -0.45259 2.36315 5.96354e-015 -3.18055e-015 7.95139e-016 0 0 0 -1.93281 -2.12354 0.12108 0.02827 2.03559 -0.19338 5.04665 30.5639 -0.986622 0.05672 2.04885 -0.04275 -2.82271 -9.65068 0.581882 0 0 0 -1.00717 -9.92046 -0.0272196 -0.05417 1.74624 0.17202 2.43776 26.9011 -1.27784 0.10407 1.76136 -0.12397 -9.93923e-017 -9.54166e-015 3.97569e-016 0 0 0 10.5175 -7.91444 6.76114 3.36241 1.20089 -0.31121 -72.1303 31.8967 -68.2517 4.983 0 -1.77636e-015 -42.0829 34.6365 -78.1791 3.48356 0 3.55271e-015 -26.0991 -7.42719 13.049 0 0 0 -0.121023 -5.01079e-006 -1.14814 0.71526 0 0 -1.72647e-006 -1.11227e-007 -6.60598e-007 0 0 0 3.18055e-015 1.19271e-015 -4.27387e-015 0 0 0 -13.8327 -3.67342 -21.4536 -3.1366 1.37405 -0.40465 102.34 22.0077 41.0263 -5.2419 0 -1.77636e-015 10.4618 3.38457 12.3415 -3.44417 1.11022e-016 1.77636e-015 -0.684586 -0.0417426 2.27931 0 0 0 0.388204 -3.11374e-006 2.4941 -0.62253 -1.11022e-016 1.77636e-015 -2.38542e-015 -1.59028e-015 -1.27222e-014 0 0 0 8.82781e-032 -1.59028e-015 3.18055e-015 
0.0838485 17.0117 0.144745 -0.397424 8.37219 -1.03305 0 0 0 -0.299681 5.35791 18.0368 1.36306 -1.79463 0.83929 -19.1114 -4.36969 -4.00693 2.44811 -6.72613 0 2.73072 43.612 7.52243 2.5622 -7.03959 0 0.96386 17.9865 2.63734 0.15764 -0.43311 2.32255 0.211961 -3.27858 -0.707706 0 0 0 -8.85582 0.425549 -20.6242 -1.30552 -1.79463 0.83929 52.0666 -33.3944 25.2882 -2.54253 -6.98555 0 -6.25707 35.2895 -3.11953 -2.56826 -7.05623 0 -0.892138 13.4485 0.426943 -0.16473 -0.45259 2.36315 -0.00293806 -0.0301266 0.0107146 0 0 0 -1.93281 -2.12354 0.12108 0.02827 2.03559 -0.19338 5.43733 30.7267 -1.01709 0.05672 2.04885 -0.04275 -2.87164 -9.6411 0.554784 0 0 0 -0.851739 -9.82434 -0.0891135 -0.05417 1.74624 0.17202 2.63792 26.9934 -1.38184 0.10407 1.76136 -0.12397 -0.114662 -0.0682452 -0.0403995 0 0 0 10.6424 -7.84509 6.68148 3.36241 1.20089 -0.31121 -72.1619 31.7378 -68.1178 4.983 -1.77636e-015 0 -42.1511 34.6751 -78.2079 3.48356 8.88178e-016 -3.55271e-015 -26.1132 -7.39337 12.9771 0 0 0 -0.121023 -5.01079e-006 -1.14814 0.71526 0 -3.55271e-015 -1.72647e-006 -1.11227e-007 -6.60598e-007 0 0 0 6.36111e-015 -1.59028e-015 4.96962e-016 0 0 0 -13.6655 -3.58273 -21.4667 -3.1366 1.37405 -0.40465 102.272 21.9929 41.1227 -5.2419 0 0 10.4676 3.32038 12.3576 -3.44417 1.11022e-016 0 -0.74259 -0.0388432 2.28574 0 0 0 0.388204 -3.11374e-006 2.4941 -0.62253 -2.22045e-016 0 1.59028e-015 3.18055e-015 -3.18055e-015 0 0 0 -7.95139e-016 1.59028e-015 3.18055e-015 
0.047202 16.9768 0.392952 -0.779161 8.10391 -0.712313 0 0 0 -0.299681 5.35791 18.0368 1.36306 -1.79463 0.83929 -18.4463 -5.1245 -4.22589 2.44811 -6.72613 0 2.57413 45.617 7.55378 2.5622 -7.03959 0 -0.169154 21.3601 4.12393 0.15764 -0.43311 2.32255 0.333691 -6.75244 -1.48937 0 0 0 -8.85582 0.425549 -20.6242 -1.30552 -1.79463 0.83929 52.1603 -33.0095 25.2535 -2.54253 -6.98555 0 -6.35005 36.1462 -3.88267 -2.56826 -7.05623 -8.88178e-016 -0.469473 15.8044 -0.49272 -0.16473 -0.45259 2.36315 -0.00600604 -0.0617101 0.0219473 0 0 0 -1.93281 -2.12354 0.12108 0.02827 2.03559 -0.19338 5.82668 30.8893 -1.04775 0.05672 2.04885 -0.04275 -2.91924 -9.63189 0.527407 0 0 0 -0.693879 -9.72817 -0.152306 -0.05417 1.74624 0.17202 2.84152 27.0855 -1.48796 0.10407 1.76136 -0.12397 -0.230438 -0.134917 -0.0831389 0 0 0 10.7693 -7.77752 6.5974 3.36241 1.20089 -0.31121 -72.1921 31.5788 -67.9855 4.983 0 1.77636e-015 -42.2185 34.7148 -78.2381 3.48356 0 0 -26.1272 -7.3601 12.9063 0 0 0 -0.121023 -5.01079e-006 -1.14814 0.71526 -8.88178e-016 0 -1.72647e-006 -1.11227e-007 -6.60598e-007 0 0 0 6.36111e-015 -7.95139e-016 -9.93923e-017 0 0 0 -13.4949 -3.49214 -21.4831 -3.1366 1.37405 -0.40465 102.224 21.9822 41.2589 -5.2419 0 1.77636e-015 10.4348 3.22855 12.2845 -3.44417 1.11022e-016 -1.77636e-015 -0.77381 -0.027853 2.3287 0 0 0 0.388204 -3.11374e-006 2.4941 -0.62253 2.22045e-016 1.77636e-015 -1.59028e-015 -3.18055e-015 -9.54166e-015 0 0 0 7.95139e-016 1.59028e-015 -3.18055e-015 
0.0121895 16.9405 0.638161 -1.16117 7.83678 -0.411187 0 0 0 -0.299681 5.35791 18.0368 1.36306 -1.79463 0.83929 -17.8068 -5.90655 -4.51781 2.44811 -6.72613 3.33067e-016 2.38093 47.6624 7.66604 2.5622 -7.03959 -8.88178e-016 -1.62102 24.6214 5.72724 0.15764 -0.43311 2.32255 0.389885 -9.82969 -2.15124 0 0 0 -8.85582 0.425549 -20.6242 -1.30552 -1.79463 0.83929 52.2672 -32.6281 25.2152 -2.54253 -6.98555 1.77636e-015 -6.42498 37.0414 -4.61337 -2.56826 -7.05623 -8.88178e-016 0.0046484 17.9437 -1.35209 -0.16473 -0.45259 2.36315 -0.00878038 -0.0903797 0.0321437 0 0 0 -1.93281 -2.12354 0.12108 0.02827 2.03559 -0.19338 6.21929 31.0522 -1.07835 0.05672 2.04885 -0.04275 -2.96949 -9.62193 0.500591 0 0 0 -0.540246 -9.63208 -0.212795 -0.05417 1.74624 0.17202 3.03938 27.1776 -1.59038 0.10407 1.76136 -0.12397 -0.344273 -0.204735 -0.121199 0 0 0 10.8928 -7.70627 6.52227 3.36241 1.20089 -0.31121 -72.2225 31.4186 -67.8542 4.983 1.77636e-015 0 -42.2875 34.7523 -78.2657 3.48356 0 -3.55271e-015 -26.1411 -7.32563 12.8332 0 0 0 -0.121023 -5.01079e-006 -1.14814 0.71526 -8.88178e-016 -3.55271e-015 -1.72647e-006 -1.11227e-007 -6.60598e-007 0 0 0 1.86212e-032 -3.97569e-016 2.68359e-015 0 0 0 -13.331 -3.40142 -21.493 -3.1366 1.37405 -0.40465 102.136 21.9632 41.3154 -5.2419 0 -1.77636e-015 10.4794 3.19204 12.39 -3.44417 -3.33067e-016 1.77636e-015 -0.858598 -0.0330444 2.29859 0 0 0 0.388204 -3.11374e-006 2.4941 -0.62253 -1.11022e-016 -1.77636e-015 -2.64834e-031 -1.59028e-015 -9.54166e-015 0 0 0 -7.95139e-016 0 -0 
-0.0187381 16.9011 0.875877 -1.54885 7.57304 -0.158335 0 0 0 -0.299681 5.35791 18.0368 1.36306 -1.79463 0.83929 -17.2275 -6.75678 -4.99111 2.44811 -6.72613 0 2.0822 49.807 7.9784 2.5622 -7.03959 -8.88178e-016 -3.59157 27.63 7.51307 0.15764 -0.43311 2.32255 0.47241 -11.9222 -2.48416 0 0 0 -8.85582 0.425549 -20.6242 -1.30552 -1.79463 0.83929 52.4062 -32.2554 25.1658 -2.54253 -6.98555 1.77636e-015 -6.49855 38.0427 -5.23687 -2.56826 -7.05623 8.88178e-016 0.46297 19.5483 -2.02236 -0.16473 -0.45259 2.36315 -0.0108435 -0.111765 0.0397492 0 0 0 -1.93281 -2.12354 0.12108 0.02827 2.03559 -0.19338 6.61972 31.2158 -1.10865 0.05672 2.04885 -0.04275 -3.02639 -9.61006 0.475176 0 0 0 -0.397525 -9.53624 -0.266585 -0.05417 1.74624 0.17202 3.22227 27.2697 -1.68332 0.10407 1.76136 -0.12397 -0.45309 -0.282421 -0.147561 0 0 0 11.0072 -7.62587 6.46948 3.36241 1.20089 -0.31121 -72.2551 31.2561 -67.7232 4.983 1.77636e-015 0 -42.3607 34.7839 -78.2861 3.48356 0 0 -26.1551 -7.28818 12.7542 0 0 0 -0.121023 -5.01079e-006 -1.14814 0.71526 -8.88178e-016 0 -1.72647e-006 -1.11227e-007 -6.60598e-007 0 0 0 6.36111e-015 -3.97569e-016 -2.78299e-015 0 0 0 -13.1842 -3.31034 -21.4865 -3.1366 1.37405 -0.40465 101.945 21.9239 41.1725 -5.2419 0 -1.77636e-015 10.7168 3.2935 12.9418 -3.44417 1.11022e-016 0 -1.07749 -0.0786966 2.08585 0 0 0 0.388204 -3.11374e-006 2.4941 -0.62253 -1.11022e-016 0 2.38542e-015 0 -9.54166e-015 0 0 0 1.59028e-015 1.59028e-015 -6.36111e-015 
-0.045513 16.8558 1.1049 -1.9489 7.30583 0.039499 0 0 0 -0.299681 5.35791 18.0368 1.36306 -1.79463 0.83929 -16.7078 -7.68112 -5.68321 2.44811 -6.72613 -5.55112e-017 1.58034 52.0896 8.53847 2.5622 -7.03959 -8.88178e-016 -6.26191 30.4197 9.58419 0.15764 -0.43311 2.32255 0.653 -13.2147 -2.4668 0 0 0 -8.85582 0.425549 -20.6242 -1.30552 -1.79463 0.83929 52.6 -31.8934 25.1204 -2.54253 -6.98555 0 -6.58788 39.1952 -5.69898 -2.56826 -7.05623 0 0.868287 20.5739 -2.47905 -0.16473 -0.45259 2.36315 -0.0118566 -0.122286 0.043491 0 0 0 -1.93281 -2.12354 0.12108 0.02827 2.03559 -0.19338 7.02886 31.3821 -1.13828 0.05672 2.04885 -0.04275 -3.09076 -9.59572 0.451702 0 0 0 -0.266167 -9.4404 -0.31308 -0.05417 1.74624 0.17202 3.3894 27.3621 -1.76599 0.10407 1.76136 -0.12397 -0.557199 -0.371744 -0.160271 0 0 0 11.1125 -7.53334 6.44273 3.36241 1.20089 -0.31121 -72.2919 31.0849 -67.5924 4.983 1.77636e-015 0 -42.4436 34.8074 -78.2958 3.48356 0 -3.55271e-015 -26.1708 -7.24689 12.6671 0 0 0 -0.121023 -5.01079e-006 -1.14814 0.71526 0 0 -1.72647e-006 -1.11227e-007 -6.60598e-007 0 0 0 -3.18055e-015 -1.19271e-015 2.98177e-016 0 0 0 -13.0576 -3.21743 -21.4595 -3.1366 1.37405 -0.40465 101.6 21.8495 40.7517 -5.2419 -4.44089e-016 1.77636e-015 11.218 3.562 14.1418 -3.44417 -1.11022e-016 0 -1.47686 -0.187275 1.60378 0 0 0 0.388204 -3.11374e-006 2.4941 -0.62253 0 0 4.77083e-015 -3.18055e-015 -2.22639e-014 0 0 0 1.59028e-015 0 9.54166e-015 
